<?xml version="1.0" encoding="utf-8"?>
<!-- Generator: Adobe Illustrator 21.0.0, SVG Export Plug-In . SVG Version: 6.00 Build 0)  -->
<svg version="1.1" id="Layer_1" xmlns="http://www.w3.org/2000/svg" xmlns:xlink="http://www.w3.org/1999/xlink" x="0px" y="0px"
	 viewBox="0 0 182.9 100.7" style="enable-background:new 0 0 182.9 100.7;" xml:space="preserve">
<style type="text/css">
	.st0{fill:#F3997A;}
	.st1{fill:#F08263;}
	.st2{fill:#F6AF95;}
	.st3{fill:#EBBE69;}
	.st4{fill:#F4CA75;}
	.st5{fill:#EA5D40;}
	.st6{fill:#D7AC58;}
	.st7{fill:#F5D892;}
	.st8{fill:#E3C988;}
	.st9{fill:#E20E17;}
	.st10{fill:#1E1E1C;}
</style>
<g>
	<path class="st0" d="M68.5,7.9H53c0,0.2-0.1,0.3-0.2,0.4l7.8,13.5c0.2,0,0.3,0,0.5,0l7.8-13.5C68.7,8.2,68.6,8,68.5,7.9z"/>
	<path class="st1" d="M52.3,8.5c-0.2,0-0.3,0-0.5,0L44,22c0.1,0.1,0.2,0.3,0.2,0.4h15.6c0-0.2,0.1-0.3,0.2-0.4L52.3,8.5z"/>
	<path class="st0" d="M52.3,36.8L60,23.4c-0.1-0.1-0.2-0.3-0.2-0.4H44.3c0,0.2-0.1,0.3-0.2,0.4l6.2,10.7l1.6,2.7
		C51.9,36.8,52.1,36.8,52.3,36.8z"/>
	<path class="st0" d="M43.6,23.6c-0.2,0-0.3,0-0.5,0l-7.8,13.5c0.1,0.1,0.2,0.3,0.2,0.4h15.6c0-0.2,0.1-0.3,0.2-0.4L43.6,23.6z"/>
	<path class="st2" d="M51.1,38.1H35.5c0,0.2-0.1,0.3-0.2,0.4l7.8,13.5c0.2,0,0.3,0,0.5,0l7.8-13.5C51.2,38.3,51.1,38.2,51.1,38.1z"
		/>
	<path class="st0" d="M39.1,46.2l-4.3-7.5c-0.2,0-0.3,0-0.5,0l-7.8,13.5c0.1,0.1,0.2,0.3,0.2,0.4h15.6c0-0.2,0.1-0.3,0.2-0.4
		L39.1,46.2z"/>
	<path class="st3" d="M26.8,53.1c0,0.2-0.1,0.3-0.2,0.4l4.5,7.7l3.3,5.8c0.2,0,0.3,0,0.5,0l7.8-13.5c-0.1-0.1-0.2-0.3-0.2-0.4H26.8z
		"/>
	<path class="st4" d="M25.6,53.8l-7.8,13.5c0.1,0.1,0.2,0.3,0.2,0.4h15.6c0-0.2,0.1-0.3,0.2-0.4L33,65.7l-6.9-11.9
		C26,53.9,25.8,53.9,25.6,53.8z"/>
	<path class="st5" d="M16.9,68.9L9.1,82.4c0.1,0.1,0.2,0.3,0.2,0.4h15.6c0-0.2,0.1-0.3,0.2-0.4l-2.8-4.9l-4.9-8.6
		C17.2,69,17.1,69,16.9,68.9z"/>
	<path class="st6" d="M43.1,53.8l-0.2,0.4l-7.5,13.1c0.1,0.1,0.2,0.3,0.2,0.4h15.6c0-0.2,0.1-0.3,0.2-0.4l-7.8-13.5
		C43.4,53.9,43.2,53.9,43.1,53.8z"/>
	<path class="st7" d="M59.8,53.1H44.3c0,0.2-0.1,0.3-0.2,0.4L51.8,67c0.2,0,0.3,0,0.5,0L60,53.6l0,0C59.9,53.4,59.8,53.3,59.8,53.1z
		"/>
	<path class="st7" d="M61.7,53.1c0,0.2-0.1,0.3-0.2,0.4l7.4,12.9l0.3,0.6c0.2,0,0.3,0,0.5,0l7.8-13.5c-0.1-0.1-0.2-0.3-0.2-0.4H61.7
		z"/>
	<path class="st8" d="M53,67.7h15.6c0-0.2,0.1-0.3,0.2-0.4L61,53.8c-0.2,0-0.3,0-0.5,0L60.4,54l-7.7,13.3
		C52.8,67.4,52.9,67.5,53,67.7z"/>
	<path class="st0" d="M19.9,72.2l5.7,9.9c0.2,0,0.3,0,0.5,0l7.8-13.5c-0.1-0.1-0.2-0.3-0.2-0.4H18.1c0,0.2-0.1,0.3-0.2,0.4
		L19.9,72.2z"/>
	<path class="st1" d="M77.2,22.4c0-0.2,0.1-0.3,0.2-0.4L69.7,8.5c-0.2,0-0.3,0-0.5,0L61.5,22c0.1,0.1,0.2,0.3,0.2,0.4H77.2z"/>
	<path class="st9" d="M68.8,37.1l-3.6-6.3L61,23.6c-0.2,0-0.3,0-0.5,0l-0.3,0.5l-7.5,13c0.1,0.1,0.2,0.3,0.2,0.4h15.6
		C68.6,37.4,68.7,37.2,68.8,37.1z"/>
	<path class="st5" d="M53,38c0,0.2-0.1,0.3-0.2,0.4l7.8,13.5c0.2,0,0.3,0,0.5,0l7.8-13.5c-0.1-0.1-0.2-0.3-0.2-0.4H53z"/>
	<path class="st9" d="M52.3,38.7c-0.2,0-0.3,0-0.5,0L44,52.2c0.1,0.1,0.2,0.3,0.2,0.4h15.6c0-0.2,0.1-0.3,0.2-0.4L52.3,38.7z"/>
	<path class="st9" d="M69.2,38.7l-7.8,13.5c0.1,0.1,0.2,0.3,0.2,0.4h15.6c0-0.2,0.1-0.3,0.2-0.4l-7.8-13.5
		C69.5,38.8,69.4,38.8,69.2,38.7z"/>
	<path class="st0" d="M68.6,35.8l0.6,1.1c0.2,0,0.3,0,0.5,0l7.8-13.5c-0.1-0.1-0.2-0.3-0.2-0.4H61.7c0,0.2-0.1,0.3-0.2,0.4
		L68.6,35.8z"/>
	<path class="st0" d="M86,37.5c0-0.2,0.1-0.3,0.2-0.4l-7.8-13.5c-0.2,0-0.3,0-0.5,0l-7.8,13.5c0.1,0.1,0.2,0.3,0.2,0.4H86z"/>
	<path class="st2" d="M72.6,42.7l5.3,9.2c0.2,0,0.3,0,0.5,0l7.8-13.5C86.1,38.3,86,38.2,86,38H70.4c0,0.2-0.1,0.3-0.2,0.4L72.6,42.7
		z"/>
	<path class="st0" d="M94.9,52.2l-7.8-13.5c-0.2,0-0.3,0-0.5,0l-7.8,13.5c0.1,0.1,0.2,0.3,0.2,0.4h15.6
		C94.7,52.4,94.8,52.3,94.9,52.2z"/>
	<path class="st3" d="M94.7,53.1H79.1c0,0.2-0.1,0.3-0.2,0.4L86.7,67c0.2,0,0.3,0,0.5,0l7-12.2l0.7-1.3
		C94.8,53.4,94.7,53.3,94.7,53.1z"/>
	<path class="st4" d="M95.8,53.8c-0.2,0-0.3,0-0.5,0l0,0.1l-7.7,13.4c0.1,0.1,0.2,0.3,0.2,0.4h15.6c0-0.2,0.1-0.3,0.2-0.4L95.8,53.8
		z"/>
	<path class="st5" d="M96.5,82.8h15.6c0-0.2,0.1-0.3,0.2-0.4l-7.8-13.5c-0.2,0-0.3,0-0.5,0l-3.5,6l-4.3,7.4
		C96.4,82.5,96.5,82.6,96.5,82.8z"/>
	<path class="st0" d="M87.6,68.6l7.8,13.5c0.2,0,0.3,0,0.5,0l7.8-13.5c-0.1-0.1-0.2-0.3-0.2-0.4H87.8C87.8,68.4,87.7,68.5,87.6,68.6
		z"/>
	<path class="st6" d="M70.4,67.7H86c0-0.2,0.1-0.3,0.2-0.4l-7.8-13.5c-0.2,0-0.3,0-0.5,0l-7.8,13.5C70.3,67.4,70.4,67.5,70.4,67.7z"
		/>
</g>
<g>
	<path class="st10" d="M111.3,58.5l-0.5-1.6h-3.1l-0.5,1.6h-1.3l2.9-7.8h1l2.9,7.8H111.3z M109.2,52.5l-1.2,3.5h2.4L109.2,52.5z"/>
	<path class="st10" d="M119.3,58.5v-5.2l-1.8,3.8h-0.9l-1.8-3.8v5.2h-1.2v-7.8h1.2l2.3,4.8l2.2-4.8h1.2v7.8H119.3z"/>
	<path class="st10" d="M124.6,58.6c-1.2,0-2-0.3-2.8-1l0.8-0.8c0.6,0.6,1.2,0.7,2,0.7c1,0,1.6-0.4,1.6-1.2c0-0.3-0.1-0.6-0.3-0.8
		c-0.2-0.2-0.4-0.3-0.9-0.3l-0.9-0.1c-0.6-0.1-1.1-0.3-1.5-0.6c-0.4-0.4-0.6-0.9-0.6-1.5c0-1.4,1-2.3,2.6-2.3c1,0,1.7,0.3,2.4,0.9
		l-0.8,0.7c-0.5-0.5-1-0.6-1.7-0.6c-0.9,0-1.4,0.5-1.4,1.2c0,0.3,0.1,0.5,0.3,0.7c0.2,0.2,0.5,0.3,0.9,0.4l0.9,0.1
		c0.7,0.1,1.1,0.3,1.5,0.6c0.4,0.4,0.6,0.9,0.6,1.6C127.4,57.7,126.2,58.6,124.6,58.6z"/>
	<path class="st10" d="M131.6,51.8v6.7h-1.2v-6.7h-2.1v-1.1h5.5v1.1H131.6z"/>
	<path class="st10" d="M135.1,58.5v-7.8h5v1.1h-3.8V54h3.2v1h-3.2v2.3h3.8v1.1H135.1z"/>
	<path class="st10" d="M146,58.5l-1.6-3.3h-1.5v3.3h-1.2v-7.8h3c1.5,0,2.4,1,2.4,2.3c0,1.1-0.7,1.8-1.6,2.1l1.8,3.4H146z
		 M144.6,51.8h-1.7v2.4h1.7c0.8,0,1.3-0.4,1.3-1.2C145.9,52.2,145.4,51.8,144.6,51.8z"/>
	<path class="st10" d="M153.6,57.8c-0.5,0.5-1.2,0.7-2,0.7h-2.7v-7.8h2.7c0.8,0,1.5,0.2,2,0.7c0.8,0.8,0.8,2,0.8,3.1
		C154.3,55.7,154.4,56.9,153.6,57.8z M152.8,52.3c-0.3-0.4-0.8-0.5-1.3-0.5H150v5.7h1.4c0.6,0,1-0.2,1.3-0.5
		c0.4-0.4,0.4-1.3,0.4-2.4C153.2,53.5,153.2,52.7,152.8,52.3z"/>
	<path class="st10" d="M160.5,58.5l-0.5-1.6h-3.1l-0.5,1.6h-1.3l2.9-7.8h1l2.8,7.8H160.5z M158.4,52.5l-1.2,3.5h2.4L158.4,52.5z"/>
	<path class="st10" d="M168.5,58.5v-5.2l-1.8,3.8h-0.9l-1.8-3.8v5.2h-1.2v-7.8h1.2l2.3,4.8l2.2-4.8h1.2v7.8H168.5z"/>
	<path class="st10" d="M123.3,70.6h-3.1v-7.8h3c1.4,0,2.3,0.8,2.3,2.1c0,0.8-0.5,1.4-1,1.6c0.6,0.2,1.2,0.8,1.2,1.8
		C125.6,69.9,124.6,70.6,123.3,70.6z M123,63.9h-1.7v2.2h1.7c0.8,0,1.3-0.4,1.3-1.1C124.3,64.3,123.8,63.9,123,63.9z M123.2,67.2
		h-1.9v2.4h1.9c0.8,0,1.3-0.5,1.3-1.2C124.4,67.7,124,67.2,123.2,67.2z"/>
	<path class="st10" d="M130,70.7c-1.6,0-2.8-1.1-2.8-2.7v-5.2h1.2V68c0,1,0.6,1.7,1.6,1.7c1,0,1.6-0.6,1.6-1.7v-5.1h1.2V68
		C132.8,69.6,131.6,70.7,130,70.7z"/>
	<path class="st10" d="M136.8,70.7c-1.2,0-2-0.3-2.8-1l0.8-0.8c0.6,0.6,1.2,0.7,2,0.7c1,0,1.6-0.4,1.6-1.2c0-0.3-0.1-0.6-0.3-0.8
		c-0.2-0.2-0.4-0.3-0.9-0.3l-0.9-0.1c-0.6-0.1-1.1-0.3-1.5-0.6c-0.4-0.4-0.6-0.9-0.6-1.5c0-1.4,1-2.3,2.6-2.3c1,0,1.7,0.3,2.4,0.9
		l-0.8,0.7c-0.5-0.5-1-0.6-1.7-0.6c-0.9,0-1.4,0.5-1.4,1.2c0,0.3,0.1,0.5,0.3,0.7c0.2,0.2,0.5,0.3,0.9,0.4l0.9,0.1
		c0.7,0.1,1.1,0.3,1.5,0.6c0.4,0.4,0.6,0.9,0.6,1.6C139.6,69.8,138.4,70.7,136.8,70.7z"/>
	<path class="st10" d="M141.2,70.6v-7.8h1.2v7.8H141.2z"/>
	<path class="st10" d="M149.2,70.6l-3.6-5.5v5.5h-1.2v-7.8h1.1l3.6,5.5v-5.5h1.2v7.8H149.2z"/>
	<path class="st10" d="M152.3,70.6v-7.8h5v1.1h-3.8v2.3h3.2v1h-3.2v2.3h3.8v1.1H152.3z"/>
	<path class="st10" d="M160.9,70.7c-1.2,0-2-0.3-2.8-1l0.8-0.8c0.6,0.6,1.2,0.7,2,0.7c1,0,1.6-0.4,1.6-1.2c0-0.3-0.1-0.6-0.3-0.8
		c-0.2-0.2-0.4-0.3-0.9-0.3l-0.9-0.1c-0.6-0.1-1.1-0.3-1.5-0.6c-0.4-0.4-0.6-0.9-0.6-1.5c0-1.4,1-2.3,2.6-2.3c1,0,1.7,0.3,2.4,0.9
		l-0.8,0.7c-0.5-0.5-1-0.6-1.7-0.6c-0.9,0-1.4,0.5-1.4,1.2c0,0.3,0.1,0.5,0.3,0.7c0.2,0.2,0.5,0.3,0.9,0.4l0.9,0.1
		c0.7,0.1,1.1,0.3,1.5,0.6c0.4,0.4,0.6,0.9,0.6,1.6C163.7,69.8,162.6,70.7,160.9,70.7z"/>
	<path class="st10" d="M167.3,70.7c-1.2,0-2-0.3-2.8-1l0.8-0.8c0.6,0.6,1.2,0.7,2,0.7c1,0,1.6-0.4,1.6-1.2c0-0.3-0.1-0.6-0.3-0.8
		c-0.2-0.2-0.4-0.3-0.9-0.3l-0.9-0.1c-0.6-0.1-1.1-0.3-1.5-0.6c-0.4-0.4-0.6-0.9-0.6-1.5c0-1.4,1-2.3,2.6-2.3c1,0,1.7,0.3,2.4,0.9
		l-0.8,0.7c-0.5-0.5-1-0.6-1.7-0.6c-0.9,0-1.4,0.5-1.4,1.2c0,0.3,0.1,0.5,0.3,0.7c0.2,0.2,0.5,0.3,0.9,0.4l0.9,0.1
		c0.7,0.1,1.1,0.3,1.5,0.6c0.4,0.4,0.6,0.9,0.6,1.6C170.1,69.8,168.9,70.7,167.3,70.7z"/>
	<path class="st10" d="M120.8,82.8l-1.6-3.3h-1.5v3.3h-1.2V75h3c1.5,0,2.4,1,2.4,2.3c0,1.1-0.7,1.8-1.6,2.1l1.8,3.4H120.8z
		 M119.5,76h-1.7v2.4h1.7c0.8,0,1.3-0.4,1.3-1.2C120.8,76.5,120.2,76,119.5,76z"/>
	<path class="st10" d="M123.7,82.8V75h5V76h-3.8v2.3h3.2v1h-3.2v2.3h3.8v1.1H123.7z"/>
	<path class="st10" d="M132.3,82.8c-1.2,0-2-0.3-2.8-1l0.8-0.8c0.6,0.6,1.2,0.7,2,0.7c1,0,1.6-0.4,1.6-1.2c0-0.3-0.1-0.6-0.3-0.8
		c-0.2-0.2-0.4-0.3-0.9-0.3l-0.9-0.1c-0.6-0.1-1.1-0.3-1.5-0.6c-0.4-0.4-0.6-0.9-0.6-1.5c0-1.4,1-2.3,2.6-2.3c1,0,1.7,0.3,2.4,0.9
		l-0.8,0.7c-0.5-0.5-1-0.6-1.7-0.6c-0.9,0-1.4,0.5-1.4,1.2c0,0.3,0.1,0.5,0.3,0.7c0.2,0.2,0.5,0.3,0.9,0.4l0.9,0.1
		c0.7,0.1,1.1,0.3,1.5,0.6c0.4,0.4,0.6,0.9,0.6,1.6C135.1,82,134,82.8,132.3,82.8z"/>
	<path class="st10" d="M136.7,82.8V75h5V76h-3.8v2.3h3.2v1h-3.2v2.3h3.8v1.1H136.7z"/>
	<path class="st10" d="M147.8,82.8l-0.5-1.6h-3.1l-0.5,1.6h-1.3l2.9-7.8h1l2.9,7.8H147.8z M145.7,76.7l-1.2,3.5h2.4L145.7,76.7z"/>
	<path class="st10" d="M154.4,82.8l-1.6-3.3h-1.5v3.3h-1.2V75h3c1.5,0,2.4,1,2.4,2.3c0,1.1-0.7,1.8-1.6,2.1l1.8,3.4H154.4z
		 M153.1,76h-1.7v2.4h1.7c0.8,0,1.3-0.4,1.3-1.2C154.4,76.5,153.8,76,153.1,76z"/>
	<path class="st10" d="M159.8,82.8c-0.8,0-1.5-0.3-2-0.8c-0.8-0.8-0.8-1.6-0.8-3.1c0-1.5,0-2.4,0.8-3.1c0.5-0.5,1.2-0.8,2-0.8
		c1.4,0,2.5,0.8,2.8,2.4h-1.2c-0.2-0.8-0.7-1.3-1.6-1.3c-0.5,0-0.9,0.2-1.1,0.5c-0.4,0.4-0.5,0.9-0.5,2.4c0,1.6,0.1,2,0.5,2.4
		c0.3,0.3,0.7,0.5,1.1,0.5c0.9,0,1.4-0.5,1.6-1.3h1.2C162.3,82,161.2,82.8,159.8,82.8z"/>
	<path class="st10" d="M168.5,82.8v-3.4h-3.2v3.4h-1.2V75h1.2v3.3h3.2V75h1.2v7.8H168.5z"/>
	<path class="st10" d="M118.6,94.9v-7.8h1.2v7.8H118.6z"/>
	<path class="st10" d="M126.6,94.9l-3.6-5.5v5.5h-1.2v-7.8h1.1l3.6,5.5v-5.5h1.2v7.8H126.6z"/>
	<path class="st10" d="M131.8,95c-1.2,0-2-0.3-2.8-1l0.8-0.8c0.6,0.6,1.2,0.7,2,0.7c1,0,1.6-0.4,1.6-1.2c0-0.3-0.1-0.6-0.3-0.8
		c-0.2-0.2-0.4-0.3-0.9-0.3l-0.9-0.1c-0.6-0.1-1.1-0.3-1.5-0.6c-0.4-0.4-0.6-0.9-0.6-1.5c0-1.4,1-2.3,2.6-2.3c1,0,1.7,0.3,2.4,0.9
		l-0.8,0.7c-0.5-0.5-1-0.6-1.7-0.6c-0.9,0-1.4,0.5-1.4,1.2c0,0.3,0.1,0.5,0.3,0.7c0.2,0.2,0.5,0.3,0.9,0.4l0.9,0.1
		c0.7,0.1,1.1,0.3,1.5,0.6c0.4,0.4,0.6,0.9,0.6,1.6C134.6,94.1,133.4,95,131.8,95z"/>
	<path class="st10" d="M138.8,88.2v6.7h-1.2v-6.7h-2.1v-1.1h5.5v1.1H138.8z"/>
	<path class="st10" d="M142.3,94.9v-7.8h1.2v7.8H142.3z"/>
	<path class="st10" d="M148.1,88.2v6.7H147v-6.7h-2.1v-1.1h5.5v1.1H148.1z"/>
	<path class="st10" d="M154.3,95c-1.6,0-2.8-1.1-2.8-2.7v-5.2h1.2v5.1c0,1,0.6,1.7,1.6,1.7c1,0,1.6-0.6,1.6-1.7v-5.1h1.2v5.2
		C157.1,93.9,155.9,95,154.3,95z"/>
	<path class="st10" d="M161.6,88.2v6.7h-1.2v-6.7h-2.1v-1.1h5.5v1.1H161.6z"/>
	<path class="st10" d="M165.1,94.9v-7.8h5v1.1h-3.8v2.3h3.2v1h-3.2v2.3h3.8v1.1H165.1z"/>
</g>
</svg>
