<svg id="Layer_1" data-name="Layer 1" xmlns="http://www.w3.org/2000/svg" viewBox="0 0 103.2 74.9"><defs><style>.cls-1{fill:#f3997a;}.cls-2{fill:#f08263;}.cls-3{fill:#f6af95;}.cls-4{fill:#ebbe69;}.cls-5{fill:#f4ca75;}.cls-6{fill:#ea5d40;}.cls-7{fill:#d7ac58;}.cls-8{fill:#f5d892;}.cls-9{fill:#e3c988;}.cls-10{fill:#e20e17;}</style></defs><title>Untitled-7</title><path class="cls-1" d="M62.5,2.9H47a.52.52,0,0,1-.2.4l7.8,13.5h.5L62.9,3.3C62.7,3.2,62.6,3,62.5,2.9Z" transform="translate(-3.1 -2.9)"/><path class="cls-2" d="M46.3,3.5h-.5L38,17a.76.76,0,0,1,.2.4H53.8A.52.52,0,0,1,54,17Z" transform="translate(-3.1 -2.9)"/><path class="cls-1" d="M46.3,31.8,54,18.4a.76.76,0,0,1-.2-.4H38.3a.52.52,0,0,1-.2.4l6.2,10.7,1.6,2.7Z" transform="translate(-3.1 -2.9)"/><path class="cls-1" d="M37.6,18.6h-.5L29.3,32.1a.76.76,0,0,1,.2.4H45.1a.52.52,0,0,1,.2-.4Z" transform="translate(-3.1 -2.9)"/><path class="cls-3" d="M45.1,33.1H29.5a.52.52,0,0,1-.2.4L37.1,47h.5l7.8-13.5C45.2,33.3,45.1,33.2,45.1,33.1Z" transform="translate(-3.1 -2.9)"/><path class="cls-1" d="M33.1,41.2l-4.3-7.5h-.5L20.5,47.2a.76.76,0,0,1,.2.4H36.3a.52.52,0,0,1,.2-.4Z" transform="translate(-3.1 -2.9)"/><path class="cls-4" d="M20.8,48.1a.52.52,0,0,1-.2.4l4.5,7.7L28.4,62h.5l7.8-13.5a.76.76,0,0,1-.2-.4Z" transform="translate(-3.1 -2.9)"/><path class="cls-5" d="M19.6,48.8,11.8,62.3a.76.76,0,0,1,.2.4H27.6a.52.52,0,0,1,.2-.4L27,60.7,20.1,48.8A.45.45,0,0,1,19.6,48.8Z" transform="translate(-3.1 -2.9)"/><path class="cls-6" d="M10.9,63.9,3.1,77.4a.76.76,0,0,1,.2.4H18.9a.52.52,0,0,1,.2-.4l-2.8-4.9-4.9-8.6A.45.45,0,0,1,10.9,63.9Z" transform="translate(-3.1 -2.9)"/><path class="cls-7" d="M37.1,48.8l-.2.4L29.4,62.3a.76.76,0,0,1,.2.4H45.2a.52.52,0,0,1,.2-.4L37.6,48.8A.45.45,0,0,1,37.1,48.8Z" transform="translate(-3.1 -2.9)"/><path class="cls-8" d="M53.8,48.1H38.3a.52.52,0,0,1-.2.4L45.8,62h.5L54,48.6h0C53.9,48.4,53.8,48.3,53.8,48.1Z" transform="translate(-3.1 -2.9)"/><path class="cls-8" d="M55.7,48.1a.52.52,0,0,1-.2.4l7.4,12.9.3.6h.5l7.8-13.5a.76.76,0,0,1-.2-.4Z" transform="translate(-3.1 -2.9)"/><path class="cls-9" d="M47,62.7H62.6a.52.52,0,0,1,.2-.4L55,48.8h-.5l-.1.2L46.7,62.3A1.38,1.38,0,0,1,47,62.7Z" transform="translate(-3.1 -2.9)"/><path class="cls-1" d="M13.9,67.2l5.7,9.9h.5l7.8-13.5a.76.76,0,0,1-.2-.4H12.1a.52.52,0,0,1-.2.4Z" transform="translate(-3.1 -2.9)"/><path class="cls-2" d="M71.2,17.4a.52.52,0,0,1,.2-.4L63.7,3.5h-.5L55.5,17a.76.76,0,0,1,.2.4Z" transform="translate(-3.1 -2.9)"/><path class="cls-10" d="M62.8,32.1l-3.6-6.3L55,18.6h-.5l-.3.5-7.5,13a.76.76,0,0,1,.2.4H62.5C62.6,32.4,62.7,32.2,62.8,32.1Z" transform="translate(-3.1 -2.9)"/><path class="cls-6" d="M47,33a.52.52,0,0,1-.2.4l7.8,13.5h.5l7.8-13.5a.76.76,0,0,1-.2-.4Z" transform="translate(-3.1 -2.9)"/><path class="cls-10" d="M46.3,33.7h-.5L38,47.2a.76.76,0,0,1,.2.4H53.8a.52.52,0,0,1,.2-.4Z" transform="translate(-3.1 -2.9)"/><path class="cls-10" d="M63.2,33.7,55.4,47.2a.76.76,0,0,1,.2.4H71.2a.52.52,0,0,1,.2-.4L63.6,33.7C63.5,33.8,63.4,33.8,63.2,33.7Z" transform="translate(-3.1 -2.9)"/><path class="cls-1" d="M62.6,30.8l.6,1.1h.5l7.8-13.5a.76.76,0,0,1-.2-.4H55.7a.52.52,0,0,1-.2.4Z" transform="translate(-3.1 -2.9)"/><path class="cls-1" d="M80,32.5a.52.52,0,0,1,.2-.4L72.4,18.6h-.5L64.1,32.1a.76.76,0,0,1,.2.4Z" transform="translate(-3.1 -2.9)"/><path class="cls-3" d="M66.6,37.7l5.3,9.2h.5l7.8-13.5A.52.52,0,0,1,80,33H64.4a.52.52,0,0,1-.2.4Z" transform="translate(-3.1 -2.9)"/><path class="cls-1" d="M88.9,47.2,81.1,33.7h-.5L72.8,47.2a.76.76,0,0,1,.2.4H88.6A1.38,1.38,0,0,1,88.9,47.2Z" transform="translate(-3.1 -2.9)"/><path class="cls-4" d="M88.7,48.1H73.1a.52.52,0,0,1-.2.4L80.7,62h.5l7-12.2.7-1.3A.52.52,0,0,1,88.7,48.1Z" transform="translate(-3.1 -2.9)"/><path class="cls-5" d="M89.8,48.8h-.5v.1L81.6,62.3a.76.76,0,0,1,.2.4H97.4a.52.52,0,0,1,.2-.4Z" transform="translate(-3.1 -2.9)"/><path class="cls-6" d="M90.5,77.8h15.6a.52.52,0,0,1,.2-.4L98.5,63.9H98l-3.5,6-4.3,7.4C90.4,77.5,90.5,77.6,90.5,77.8Z" transform="translate(-3.1 -2.9)"/><path class="cls-1" d="M81.6,63.6l7.8,13.5h.5l7.8-13.5a.76.76,0,0,1-.2-.4H81.8A.52.52,0,0,1,81.6,63.6Z" transform="translate(-3.1 -2.9)"/><path class="cls-7" d="M64.4,62.7H80a.52.52,0,0,1,.2-.4L72.4,48.8h-.5L64.1,62.3C64.3,62.4,64.4,62.5,64.4,62.7Z" transform="translate(-3.1 -2.9)"/></svg>