<svg id="Layer_1" data-name="Layer 1" xmlns="http://www.w3.org/2000/svg" viewBox="0 0 41.4 43.6"><defs><style>.cls-1{fill:#fff;}.cls-2{fill:#0089cf;}</style></defs><title>vu</title><path class="cls-1" d="M6.5,38.6v.9l.3-.2c-.1-.2-.1-.5-.2-.7Z" transform="translate(-4.1 -3.3)"/><path class="cls-2" d="M10.9,28.8a.3.3,0,1,1,.3.3.27.27,0,0,1-.3-.3" transform="translate(-4.1 -3.3)"/><path class="cls-2" d="M27.4,36.9a2.73,2.73,0,0,0-2.9-1.7,1.49,1.49,0,0,0-2.5-.4,2,2,0,0,0,1.2.6v.3c-.9,0-1.2-.4-1.8-1.1-.3,2.2,2.3,3,3.1,1.2,1.2,0,2,.5,2.2,1.3a1.94,1.94,0,0,1-.4,2,2.26,2.26,0,0,1-3,.3,6.27,6.27,0,0,1-2-1.7,6.26,6.26,0,0,0-2.1-1.8,2.61,2.61,0,0,0-1.1-.3c-.2,0-.4-.1-.7-.1a1.27,1.27,0,0,0-.6.1c-1.6.2-3.2.9-5.1,1.1h-1A20.36,20.36,0,0,1,9,38.2l-1.2,1h0a6,6,0,0,1-.8.7,26.45,26.45,0,0,1,.2,2.7v1.6a3,3,0,0,1-.2,1,.67.67,0,0,1-.7.5c-.3.1-1.1-.5-1.4-.1a1.1,1.1,0,0,0,.3,1.2H7.4a5.13,5.13,0,0,0,.5-1.2,7.26,7.26,0,0,1,.5-.9,3.55,3.55,0,0,0,.4-.9,1.45,1.45,0,0,1,.2-.7l.5-1c0-.1.1-.1.1-.2a.76.76,0,0,1,.2.4A4,4,0,0,0,11.5,44a1.54,1.54,0,0,1,.6.4c.1.1.1.4.1.7a.67.67,0,0,1-.4.7c-.5.2-1.2-.5-1.5-.1s0,.8.3,1.2h2a5.19,5.19,0,0,0,.7-2.7c0-.9,0-1.1-.6-1.4-.2-.1-.4-.6-.5-1v-.3a12.15,12.15,0,0,0,3.1-1.7v.5c.2,1.3.3,2.4,1.3,3.3.3.3.5.5.5.7a1.33,1.33,0,0,1-.3.7,1.4,1.4,0,0,1-1.1.9c-.5.1-1-.6-1.4-.2s.1,1,.3,1.2h2c.7-1.2,1.6-2.2,1.9-2.9.2-.5.2-.7-.2-.8-.7-.4-.6-1.2-.4-2.1,0-.2.1-.3.2-.5.5,1.4,1.2,2.7,2.7,3.1a1.14,1.14,0,0,1,.7.3v.6a1.85,1.85,0,0,1-.7,1.2c-.4.3-1.3-.7-1.6-.1-.2.4.2,1,.3,1.2h2a26.91,26.91,0,0,0,1.2-3.1c.1-.9.1-1.3-.6-1.4a.76.76,0,0,1-.8-.7c-.3-.9-.2-2.5-.9-3.5a8.49,8.49,0,0,0,2.4,2c1.7.9,3.5.6,4.3-.6a3.8,3.8,0,0,0,.3-2.7" transform="translate(-4.1 -3.3)"/><path class="cls-2" d="M44.3,13.6a32,32,0,0,0-7.9.8c1.8-.9,2.4-1.1,3-1.5.2-.1.3-.4.3-.8s-.4-.5-.9-.4a16.3,16.3,0,0,0-2.8.8,55.5,55.5,0,0,0-10.4,5.6,58.58,58.58,0,0,0-9,7.5c-.7.7-1.5,1.6-2.4,2.6-.1-.2-.2-.3-.5-.2,1-2.2,1.1-2.3,1.6-3.5a1.39,1.39,0,0,0-.1-1.3c-.3-.5-.7-.2-1,0-.4.5-.5.6-1.4,1.7,1.1-3.7,1.7-4,2.7-6.1a1.7,1.7,0,0,0,0-1c-.1-.3-.3-.4-.5-.3-.4.2-.5.4-1.3,1.3,1.1-2.1,2.6-4.6,2.8-5s.4-.5,0-1.2-.7-.1-1,.1a6.93,6.93,0,0,0-1.4,1.5,29.18,29.18,0,0,1,3.4-4.9c.4-.6.4-.7.1-1.4s-.8-.3-1,0a22.5,22.5,0,0,0-3,3.1,29.2,29.2,0,0,1,3.3-5.6c.3-.4.3-.6,0-1.5a.87.87,0,0,0-.9-.6,6.56,6.56,0,0,0-2,1.4,28.27,28.27,0,0,0-7.2,9.5A27.61,27.61,0,0,0,4.1,26.1,29.35,29.35,0,0,0,6.4,37.3V37a8.58,8.58,0,0,1,.4-3.4A12.43,12.43,0,0,1,8.4,30l-.9-1.2,1.2.4L8,27.6a2.58,2.58,0,0,1,1.6,1,1.62,1.62,0,0,1,2.1-.1,3.26,3.26,0,0,1,1.2.2,1.21,1.21,0,0,1,.5,1.2,1.61,1.61,0,0,0-2.2-.1l1.8.6-2.3.2V33L7.9,35.5v.9l1.9-1.7v.9l-3.3,3v.9l4.2-3.8h0l1.1-.9h0a7.57,7.57,0,0,1,1.3-1c.4-.3.5,0,.6.5s.6.8,1.6-.1c2.9-2.7,6-4.1,9.3-5.7-1.8,1.2-5,3-6.1,4.2-.5.6,0,1.9.8,1.3a7.15,7.15,0,0,1,4.2-1,1.69,1.69,0,0,0,1.2-.7c.3-.3.3-.7-.3-.7a24.13,24.13,0,0,1,6.3-1.4,1.12,1.12,0,0,0,1.2-1c.1-.5-.1-.7-.8-.7a14.72,14.72,0,0,0-3.3.3A86.21,86.21,0,0,1,37,26.1c.9-.3,1-.5,1-1s-.3-.6-1.3-.6a40,40,0,0,0-9.6,1.6,45.42,45.42,0,0,1,10.7-4.2c1.1-.3,1.2-.6,1.3-1.1s-.3-.6-.7-.6a14.94,14.94,0,0,0-4.6.8c2.6-1.1,5.5-2.5,7.5-3.1.4-.2.7-.4.7-.9s-.1-.4-.5-.4a16.26,16.26,0,0,0-4,.8c3.5-1.5,4.6-2,7-2.4.8-.2.9-.4,1-.9-.3-.5-.7-.5-1.2-.5M9.2,25.6a.68.68,0,0,0-.4-.6,14.57,14.57,0,0,1,2-3.6,31.73,31.73,0,0,0-1.6,4.2M6,24.5A28.17,28.17,0,0,1,12.4,8.9C9.1,13.9,7.2,20.8,6,24.5m12.5,2.2c4.4-4.2,10.4-8.6,18-10.4-6.4,2.2-15.2,8.2-18,10.4" transform="translate(-4.1 -3.3)"/></svg>